<svg aria-hidden="true" style="position: absolute; width: 0; height: 0; overflow: hidden;" version="1.1" xmlns="http://www.w3.org/2000/svg" xmlns:xlink="http://www.w3.org/1999/xlink">
<defs>
<symbol id="icon-mail" viewBox="0 0 32 32">
<path stroke-linejoin="round" stroke-linecap="round" stroke-miterlimit="4" stroke-width="2.3333" d="M6.4 6.667h19.2c1.32 0 2.4 1.050 2.4 2.333v14c0 1.283-1.080 2.333-2.4 2.333h-19.2c-1.32 0-2.4-1.050-2.4-2.333v-14c0-1.283 1.080-2.333 2.4-2.333z"></path>
<path stroke-linejoin="round" stroke-linecap="round" stroke-miterlimit="4" stroke-width="2.3333" d="M26.667 9.333l-10.667 8-10.667-8"></path>
</symbol>
<symbol id="icon-map-pin" viewBox="0 0 32 32">
<path stroke-linejoin="round" stroke-linecap="round" stroke-miterlimit="4" stroke-width="2.3333" d="M26.667 13.818c0 7.636-10.667 14.182-10.667 14.182s-10.667-6.545-10.667-14.182c0-5.422 4.776-9.818 10.667-9.818s10.667 4.396 10.667 9.818v0z"></path>
<path stroke-linejoin="round" stroke-linecap="round" stroke-miterlimit="4" stroke-width="2.3333" d="M16 18.667c2.209 0 4-1.791 4-4s-1.791-4-4-4-4 1.791-4 4c0 2.209 1.791 4 4 4z"></path>
</symbol>
<symbol id="icon-phone" viewBox="0 0 32 32">
<path stroke-linejoin="round" stroke-linecap="round" stroke-miterlimit="4" stroke-width="2.3333" d="M26.666 21.337v3.218c0.002 0.604-0.25 1.181-0.695 1.589s-1.042 0.61-1.643 0.556c-3.301-0.359-6.471-1.487-9.257-3.293-2.592-1.647-4.789-3.844-6.436-6.436-1.813-2.798-2.941-5.984-3.293-9.3-0.054-0.6 0.146-1.195 0.552-1.639s0.98-0.698 1.582-0.699h3.218c1.077-0.011 1.995 0.779 2.145 1.845 0.136 1.030 0.388 2.041 0.751 3.014 0.295 0.784 0.106 1.668-0.483 2.263l-1.362 1.362c1.527 2.685 3.75 4.909 6.436 6.436l1.362-1.362c0.595-0.589 1.479-0.777 2.263-0.483 0.973 0.363 1.984 0.615 3.014 0.751 1.079 0.152 1.872 1.088 1.845 2.177z"></path>
</symbol>
<symbol id="icon-facebook" viewBox="0 0 32 32">
<path d="M21.33 5.312h2.922v-5.088c-1.243-0.143-2.684-0.224-4.143-0.224-0.040 0-0.079 0-0.119 0h0.006c-4.211 0-7.098 2.65-7.098 7.52v4.48h-4.648v5.688h4.648v14.312h5.699v-14.31h4.459l0.709-5.688h-5.168v-3.922c0-1.643 0.443-2.768 2.733-2.768z"></path>
</symbol>
<symbol id="icon-instagram" viewBox="0 0 32 32">
<path d="M31.968 9.408c-0.074-1.701-0.349-2.869-0.742-3.882-0.425-1.111-1.055-2.058-1.85-2.837l-0.001-0.001c-0.779-0.793-1.724-1.421-2.778-1.827l-0.054-0.018c-1.019-0.394-2.181-0.667-3.882-0.742-1.712-0.082-2.256-0.101-6.602-0.101-4.344 0-4.888 0.019-6.595 0.094-1.699 0.074-2.869 0.349-3.88 0.742-1.112 0.425-2.059 1.055-2.839 1.85l-0.001 0.001c-0.792 0.779-1.419 1.724-1.825 2.778l-0.018 0.054c-0.395 1.019-0.669 2.181-0.744 3.882-0.082 1.712-0.101 2.256-0.101 6.602 0 4.344 0.019 4.888 0.094 6.595 0.075 1.701 0.35 2.869 0.744 3.882 0.425 1.111 1.054 2.058 1.848 2.837l0.001 0.001c0.8 0.813 1.77 1.443 2.832 1.843 1.019 0.395 2.182 0.67 3.882 0.744 1.707 0.075 2.251 0.094 6.595 0.094 4.346 0 4.89-0.019 6.595-0.094 1.701-0.074 2.869-0.349 3.882-0.742 2.157-0.851 3.832-2.526 4.664-4.628l0.019-0.055c0.394-1.019 0.669-2.182 0.744-3.882 0.075-1.707 0.093-2.251 0.093-6.595s-0.006-4.888-0.080-6.595zM29.090 22.474c-0.070 1.563-0.333 2.406-0.55 2.97-0.552 1.399-1.64 2.486-3.004 3.024l-0.036 0.013c-0.56 0.219-1.411 0.482-2.968 0.55-1.688 0.075-2.194 0.094-6.464 0.094s-4.782-0.019-6.464-0.094c-1.563-0.069-2.406-0.331-2.97-0.55-0.72-0.27-1.334-0.677-1.836-1.193l-0.001-0.001c-0.517-0.503-0.924-1.117-1.184-1.803l-0.011-0.034c-0.218-0.563-0.48-1.413-0.549-2.97-0.075-1.688-0.094-2.195-0.094-6.464s0.019-4.784 0.094-6.464c0.069-1.563 0.331-2.406 0.549-2.97 0.268-0.722 0.677-1.337 1.197-1.837l0.002-0.002c0.504-0.517 1.119-0.924 1.806-1.182l0.034-0.011c0.56-0.219 1.411-0.48 2.968-0.55 1.688-0.074 2.195-0.093 6.464-0.093 4.275 0 4.782 0.019 6.464 0.093 1.563 0.069 2.406 0.331 2.97 0.55 0.693 0.256 1.325 0.662 1.837 1.194 0.531 0.52 0.938 1.144 1.195 1.84 0.218 0.56 0.48 1.411 0.549 2.968 0.075 1.688 0.094 2.194 0.094 6.464s-0.019 4.768-0.094 6.458z"></path>
<path d="M16.059 7.782c-4.539 0.003-8.217 3.682-8.219 8.221v0c0 0 0 0.001 0 0.002 0 4.541 3.681 8.222 8.222 8.222s8.222-3.681 8.222-8.222c0-4.541-3.681-8.222-8.222-8.222-0.001 0-0.001 0-0.002 0h0zM16.061 21.334c-2.945-0-5.332-2.388-5.332-5.333s2.388-5.333 5.333-5.333c0 0 0.001 0 0.001 0h-0c2.946 0 5.334 2.388 5.334 5.334s-2.388 5.334-5.334 5.334v0zM26.525 7.458c0 1.060-0.86 1.92-1.92 1.92s-1.92-0.86-1.92-1.92v0c0-1.060 0.86-1.92 1.92-1.92s1.92 0.86 1.92 1.92v0z"></path>
</symbol>
<symbol id="icon-linkedin" viewBox="0 0 32 32">
<path d="M31.992 32h0.008v-11.738c0-5.741-1.235-10.163-7.947-10.163-3.227 0-5.392 1.77-6.277 3.45h-0.093v-2.914h-6.365v21.363h6.627v-10.578c0-2.786 0.528-5.48 3.978-5.48 3.398 0 3.45 3.179 3.45 5.658v10.402zM0.528 10.635h6.635v21.365h-6.635zM3.843 0c-0.001 0-0.002 0-0.003 0-2.121 0-3.84 1.719-3.84 3.84 0 0.001 0 0.002 0 0.003v-0c0 2.122 1.722 3.878 3.843 3.878s3.842-1.757 3.842-3.878c-0.001-2.122-1.72-3.841-3.841-3.843h-0z"></path>
</symbol>
<symbol id="icon-logo" viewBox="0 0 40 32">
<path d="M22.718 9.734l-0.76-0.577c-0.099-0.080-0.226-0.128-0.365-0.128-0.179 0-0.34 0.081-0.447 0.209l-0.001 0.001-10.521 12.013 0.162 0.179 2.606-2.389c-0.148-0.061-0.251-0.204-0.251-0.371 0-0.028 0.003-0.055 0.008-0.081l-0 0.003c0.039-0.183 0.2-0.319 0.392-0.319 0.003 0 0.005 0 0.008 0h-0c0 0 0 0 0.001 0 0.176 0 0.325 0.115 0.376 0.274l0.001 0.003 3.435-3.167c0.050-0.041 0.115-0.065 0.186-0.065s0.135 0.025 0.186 0.066l-0.001-0 0.174 0.127c0.047 0.034 0.105 0.054 0.169 0.054 0.088 0 0.166-0.039 0.22-0.1l0-0 4.491-5.008c0.082-0.086 0.133-0.202 0.133-0.331 0-0.161-0.079-0.303-0.201-0.39l-0.001-0.001z"></path>
<path d="M27.663 13.115c-2.174 1.555-4.713 2.773-7.449 3.511l-0.165 0.038c-2.438 0.645-5.274 1.082-8.188 1.219l-0.093 0.003c0.056 0.41 0.157 0.813 0.302 1.201 1.578 1.419 13.463-1.004 15.784-3.808 0.493-0.583-0.191-2.164-0.191-2.164zM13.55 19.041c-0 0-0.001 0-0.001 0-0.163 0-0.303-0.099-0.363-0.24l-0.001-0.003c-0.019-0.044-0.030-0.096-0.030-0.15 0-0.108 0.044-0.206 0.116-0.277l0-0c0.071-0.068 0.168-0.111 0.274-0.111 0.218 0 0.395 0.177 0.395 0.395 0 0.106-0.042 0.202-0.109 0.273l0-0c-0.070 0.070-0.167 0.113-0.274 0.113-0.002 0-0.005-0-0.007-0h0zM2.321 12.284l0.093-0.398 1.509 0.341c0.125 0.229 0.202 0.48 0.226 0.739 0.029 0.274 0.011 0.551-0.052 0.819-0.081 0.39-0.256 0.729-0.501 1.006l0.002-0.002c-0.239 0.27-0.549 0.469-0.894 0.577-0.186 0.059-0.4 0.094-0.623 0.094-0.168 0-0.332-0.020-0.488-0.057l0.014 0.003c-0.379-0.083-0.707-0.261-0.97-0.508l0.001 0.001c-0.259-0.238-0.452-0.545-0.548-0.892l-0.003-0.013c-0.050-0.173-0.078-0.372-0.078-0.577s0.028-0.404 0.082-0.592l-0.004 0.015c0.063-0.282 0.174-0.552 0.331-0.796 0.15-0.222 0.344-0.403 0.572-0.532l0.008-0.004 0.209 0.317c-0.396 0.245-0.678 0.643-0.764 1.11l-0.002 0.010c-0.032 0.126-0.050 0.271-0.050 0.42 0 0.173 0.025 0.34 0.070 0.498l-0.003-0.013c0.078 0.28 0.233 0.534 0.447 0.733 0.221 0.211 0.496 0.358 0.795 0.421 0.133 0.038 0.286 0.060 0.444 0.060s0.311-0.022 0.455-0.063l-0.012 0.003c0.278-0.091 0.528-0.252 0.726-0.467 0.203-0.232 0.343-0.512 0.406-0.814 0.036-0.134 0.057-0.287 0.057-0.445 0-0.236-0.046-0.462-0.13-0.668l0.004 0.012zM5.606 8.655l-1.353 1.794 0.581 1.033-0.267 0.358-2.147-3.895 0.25-0.341 4.37 0.935-0.273 0.358zM5.223 8.562l-2.322-0.519 1.161 2.071zM5.223 4.933l0.348-0.259 2.211 2.943 1.822-1.356 0.221 0.294-2.165 1.61zM8.878 2.527l0.389-0.173 1.533 3.335 2.071-0.935 0.151 0.335-2.461 1.114zM16.527 3.854l0.087 0.363-2.797 0.652-0.928-3.935 2.715-0.629 0.082 0.357-2.322 0.537 0.331 1.396 2.042-0.479 0.087 0.358-2.049 0.473 0.349 1.459zM20.513 3.998l-0.969-1.269q-0.162 0.009-0.325 0l-1.091 0.034 0.041 1.281h-0.43l-0.133-4.039 1.543-0.006c0.051-0.005 0.11-0.008 0.17-0.008 0.397 0 0.765 0.126 1.066 0.34l-0.006-0.004c0.291 0.234 0.476 0.591 0.476 0.991 0 0.005-0 0.009-0 0.014v-0.001c0.017 0.286-0.058 0.569-0.215 0.808-0.166 0.227-0.396 0.398-0.664 0.487l-0.010 0.003 1.015 1.35zM20.107 2.1c0.184-0.168 0.299-0.409 0.299-0.676 0-0.028-0.001-0.056-0.004-0.083l0 0.004c0-0.006 0-0.013 0-0.019 0-0.289-0.133-0.548-0.341-0.718l-0.002-0.001c-0.222-0.151-0.496-0.242-0.791-0.242-0.042 0-0.084 0.002-0.125 0.005l0.005-0-1.103 0.040 0.070 2.020 1.080-0.034c0.015 0.001 0.032 0.001 0.050 0.001 0.326 0 0.626-0.111 0.864-0.298l-0.003 0.002zM23.583 2.926l-0.209 1.379-0.423-0.063 0.215-1.356-1.201-2.885 0.453 0.069 1.027 2.458 1.741-2.037 0.406 0.087zM29.322 2.683l0.505 0.652-0.221 0.173-0.505-0.669-0.319 0.756-0.243-0.104 0.325-0.756-0.835 0.11v-0.277l0.824-0.092-0.511-0.652 0.226-0.173 0.447 0.657 0.314-0.761 0.249 0.104-0.296 0.773 0.836-0.115v0.283zM31.261 7.334c-0.131-0.198-0.22-0.436-0.249-0.691l-0.001-0.007 0.343-0.15c0.026 0.229 0.101 0.45 0.221 0.646 0.129 0.221 0.298 0.417 0.499 0.577 0.207 0.197 0.471 0.324 0.754 0.363 0.018 0.002 0.038 0.003 0.059 0.003 0.195 0 0.37-0.088 0.486-0.227l0.001-0.001c0.084-0.091 0.135-0.213 0.135-0.347 0-0.016-0.001-0.031-0.002-0.047l0 0.002c-0.022-0.149-0.070-0.284-0.142-0.403l0.003 0.005q-0.164-0.266-0.354-0.514c-0.143-0.184-0.282-0.392-0.404-0.609l-0.013-0.026c-0.091-0.156-0.146-0.342-0.151-0.542l-0-0.001c0-0.214 0.080-0.419 0.226-0.577 0.126-0.152 0.293-0.266 0.482-0.329 0.096-0.029 0.207-0.045 0.322-0.045s0.226 0.017 0.33 0.047l-0.008-0.002c0.271 0.089 0.522 0.23 0.737 0.415 0.178 0.148 0.337 0.319 0.47 0.508 0.123 0.175 0.215 0.371 0.273 0.577l-0.331 0.173c-0.063-0.207-0.15-0.387-0.26-0.55l0.005 0.007c-0.113-0.151-0.241-0.282-0.384-0.394l-0.004-0.003c-0.197-0.19-0.456-0.318-0.742-0.351l-0.006-0.001c-0.016-0.001-0.034-0.002-0.053-0.002-0.199 0-0.377 0.093-0.492 0.237l-0.001 0.001c-0.084 0.089-0.136 0.209-0.136 0.342 0 0.018 0.001 0.035 0.003 0.052l-0-0.002c0.014 0.146 0.062 0.286 0.139 0.41 0.081 0.133 0.197 0.306 0.354 0.514q0.233 0.295 0.417 0.623c0.097 0.166 0.151 0.351 0.157 0.543 0 0.214-0.080 0.419-0.226 0.577-0.127 0.154-0.297 0.269-0.487 0.329-0.21 0.063-0.434 0.063-0.644 0-0.273-0.088-0.526-0.229-0.743-0.415-0.231-0.201-0.425-0.437-0.574-0.702l-0.007-0.013zM37.098 8.176l-0.818-1.154 0.302-0.213 1.886 2.677-0.302 0.214-0.818-1.154-3.029 2.106-0.244-0.352zM35.799 12.919c0.109-0.361 0.311-0.666 0.578-0.898l0.002-0.002c0.26-0.232 0.582-0.401 0.939-0.476l0.013-0.002c0.141-0.034 0.304-0.053 0.471-0.053 0.221 0 0.435 0.034 0.635 0.097l-0.015-0.004c0.353 0.118 0.652 0.317 0.886 0.575l0.002 0.002c0.25 0.286 0.42 0.632 0.493 1.004 0.096 0.365 0.096 0.749 0 1.114-0.112 0.359-0.314 0.664-0.578 0.898l-0.002 0.002c-0.38 0.339-0.883 0.546-1.435 0.546-0.227 0-0.446-0.035-0.651-0.1l0.015 0.004c-0.355-0.112-0.655-0.312-0.886-0.575l-0.002-0.002c-0.24-0.273-0.413-0.611-0.491-0.984l-0.002-0.014c-0.038-0.154-0.060-0.33-0.060-0.511 0-0.221 0.032-0.434 0.093-0.635l-0.004 0.016zM36.558 14.753c0.194 0.22 0.445 0.382 0.726 0.468 0.15 0.045 0.322 0.070 0.5 0.070 0.453 0 0.867-0.166 1.185-0.441l-0.002 0.002c0.214-0.196 0.373-0.445 0.459-0.722 0.043-0.148 0.067-0.319 0.067-0.495 0-0.46-0.168-0.881-0.447-1.204l0.002 0.002c-0.198-0.215-0.451-0.377-0.737-0.464l-0.012-0.003c-0.134-0.037-0.288-0.058-0.447-0.058s-0.313 0.021-0.459 0.061l0.012-0.003c-0.295 0.057-0.569 0.194-0.789 0.398-0.211 0.192-0.37 0.438-0.456 0.716l-0.003 0.011c-0.038 0.134-0.059 0.288-0.059 0.447s0.022 0.313 0.062 0.459l-0.003-0.012c0.063 0.286 0.202 0.551 0.401 0.767zM35.358 19.618l1.503-0.577c0-0.103 0.034-0.207 0.064-0.317l0.284-1.045-1.23-0.317 0.11-0.41 3.923 1.045-0.394 1.459c-0.094 0.439-0.336 0.811-0.669 1.070l-0.004 0.003c-0.2 0.14-0.448 0.223-0.715 0.223-0.139 0-0.272-0.022-0.397-0.064l0.009 0.003c-0.289-0.063-0.534-0.219-0.71-0.433l-0.002-0.002c-0.174-0.211-0.279-0.484-0.281-0.781v-0l-1.601 0.577zM37.302 19.779c0.138 0.245 0.366 0.427 0.638 0.5l0.007 0.002c0.081 0.022 0.174 0.035 0.269 0.035 0.2 0 0.387-0.056 0.547-0.153l-0.005 0.003c0.25-0.2 0.428-0.482 0.492-0.804l0.001-0.009 0.278-1.039-1.967-0.525-0.279 1.039c-0.048 0.135-0.076 0.291-0.076 0.453 0 0.18 0.034 0.351 0.097 0.509l-0.003-0.009zM33.274 23.334l-0.296-0.225 1.741-2.279 3.238 2.44-1.683 2.21-0.296-0.225 1.422-1.863-1.16-0.871-1.271 1.667-0.29-0.219 1.3-1.667-1.201-0.906zM31.917 27.932l-0.83 0.046v-0.277l0.83-0.006-0.447-0.687 0.226-0.145 0.441 0.693 0.36-0.773 0.25 0.133-0.394 0.727 0.829-0.046v0.283h-0.841l0.447 0.686-0.226 0.145-0.441-0.693-0.383 0.75-0.244-0.139zM24.373 27.471l0.702 0.386c0.239-0.451 0.653-0.783 1.149-0.909l0.012-0.003c0.23-0.072 0.473-0.097 0.714-0.075 0.219 0.017 0.417 0.093 0.584 0.21l-0.004-0.002c0.154 0.116 0.269 0.278 0.325 0.462 0.070 0.227 0.057 0.473-0.035 0.692-0.153 0.31-0.347 0.576-0.58 0.802l-0.001 0.001q0.289 0.154 0.529 0.375c0.109 0.113 0.191 0.249 0.238 0.398 0.015 0.057 0.024 0.121 0.024 0.188 0 0.185-0.066 0.355-0.175 0.488l0.001-0.001c-0.154 0.218-0.38 0.377-0.642 0.443l-0.008 0.002c-0.107 0.042-0.231 0.066-0.36 0.066s-0.253-0.024-0.367-0.068l0.007 0.002c-0.206-0.090-0.36-0.268-0.416-0.485l-0.001-0.005c-0.024-0.071-0.037-0.153-0.037-0.238 0-0.123 0.028-0.24 0.079-0.343l-0.002 0.005c0.133-0.263 0.307-0.502 0.517-0.71l-1.398-0.773c-0.032 0.158-0.051 0.341-0.051 0.527 0 0.105 0.006 0.209 0.017 0.311l-0.001-0.012h-0.354c-0.004-0.058-0.007-0.125-0.007-0.193 0-0.29 0.045-0.569 0.128-0.831l-0.005 0.019-0.731-0.404zM25.382 28.048l1.537 0.848c0.202-0.191 0.369-0.416 0.494-0.664 0.030-0.077 0.048-0.166 0.048-0.259s-0.017-0.182-0.049-0.264l0.002 0.005c-0.055-0.205-0.206-0.365-0.401-0.432l-0.004-0.001c-0.111-0.038-0.239-0.061-0.371-0.061s-0.261 0.022-0.38 0.063l0.008-0.002c-0.403 0.108-0.728 0.382-0.902 0.742l-0.004 0.008zM27.564 30.355c0.046-0.075 0.073-0.166 0.073-0.264 0-0.058-0.010-0.114-0.028-0.167l0.001 0.004c-0.035-0.114-0.099-0.217-0.186-0.3-0.14-0.118-0.298-0.224-0.468-0.311l-0.014-0.007c-0.172 0.169-0.323 0.359-0.451 0.564l-0.007 0.013c-0.070 0.131-0.087 0.283-0.046 0.426 0.039 0.136 0.131 0.245 0.253 0.305l0.003 0.001c0.147 0.055 0.311 0.055 0.458 0 0.158-0.042 0.295-0.138 0.389-0.271zM17.299 31.919l0.081-4.039h0.411l-0.063 3.231 1.648-2.689h0.203l1.544 2.735 0.058-3.214h0.412l-0.075 4.039h-0.354l-1.706-3.018-1.805 2.96zM15.279 27.695c0.378 0.358 0.614 0.863 0.614 1.423 0 0.205-0.031 0.402-0.090 0.587l0.004-0.014c-0.101 0.371-0.293 0.689-0.55 0.94l-0 0c-0.25 0.245-0.567 0.424-0.921 0.505l-0.013 0.003c-0.149 0.035-0.32 0.055-0.495 0.055-0.225 0-0.442-0.033-0.647-0.094l0.016 0.004c-0.381-0.094-0.71-0.277-0.976-0.526l0.001 0.001c-0.254-0.242-0.442-0.55-0.537-0.898l-0.003-0.014c-0.040-0.154-0.063-0.33-0.063-0.512 0-0.596 0.246-1.134 0.643-1.518l0.001-0.001c0.253-0.251 0.57-0.431 0.917-0.519 0.148-0.035 0.319-0.055 0.493-0.055 0.223 0 0.439 0.033 0.642 0.093l-0.016-0.004c0.369 0.093 0.707 0.28 0.981 0.543zM13.301 27.494c-0.284 0.066-0.543 0.21-0.749 0.415-0.214 0.211-0.366 0.477-0.441 0.767-0.039 0.132-0.061 0.284-0.061 0.441s0.022 0.309 0.064 0.453l-0.003-0.012c0.069 0.281 0.215 0.537 0.423 0.738 0.218 0.213 0.489 0.366 0.783 0.445 0.295 0.074 0.605 0.074 0.899 0s0.55-0.219 0.755-0.416l-0.001 0c0.213-0.213 0.365-0.478 0.441-0.767 0.039-0.133 0.061-0.286 0.061-0.444s-0.022-0.311-0.064-0.456l0.003 0.012c-0.074-0.28-0.223-0.535-0.429-0.739-0.213-0.207-0.48-0.359-0.778-0.436l-0.012-0.003c-0.134-0.038-0.288-0.060-0.447-0.060s-0.313 0.022-0.458 0.063l0.012-0.003zM8.907 24.811l0.157 1.587q0.15 0.063 0.29 0.144l0.946 0.543 0.638-1.12 0.377 0.214-2.031 3.479-1.323-0.756c-0.391-0.198-0.695-0.519-0.866-0.912l-0.005-0.012c-0.045-0.124-0.071-0.267-0.071-0.417 0-0.252 0.074-0.487 0.201-0.684l-0.003 0.005c0.137-0.254 0.347-0.453 0.602-0.574l0.008-0.003c0.265-0.109 0.557-0.131 0.835-0.063l-0.168-1.697zM8.246 26.634c-0.28 0.072-0.51 0.249-0.649 0.486l-0.003 0.005c-0.087 0.148-0.139 0.327-0.139 0.517 0 0.103 0.015 0.203 0.043 0.297l-0.002-0.007c0.137 0.299 0.373 0.542 0.668 0.687l0.934 0.537 1.015-1.731-0.934-0.536c-0.237-0.178-0.536-0.285-0.86-0.285-0.026 0-0.052 0.001-0.078 0.002l0.004-0zM5.472 22.105l0.261-0.259 2.002 2.048-2.902 2.816-1.933-1.985 0.267-0.259 1.642 1.679 0.993-0.998-1.439-1.488 0.279-0.265 1.468 1.5 1.079-1.045zM1.161 19.837l0.139-0.797 0.273 0.041-0.157 0.819 0.772-0.283 0.093 0.254-0.783 0.266 0.644 0.542-0.186 0.207-0.621-0.577-0.145 0.82-0.278-0.052 0.162-0.819-0.777 0.277-0.087-0.225 0.778-0.271-0.644-0.536 0.191-0.207z"></path>
</symbol>
<symbol id="icon-twitter" viewBox="0 0 32 32">
<path d="M32 6.078c-1.1 0.492-2.376 0.856-3.712 1.028l-0.069 0.007c1.36-0.817 2.381-2.078 2.873-3.579l0.013-0.046c-1.198 0.722-2.591 1.273-4.076 1.573l-0.084 0.014c-1.2-1.279-2.9-2.076-4.787-2.076-3.622 0-6.558 2.936-6.558 6.558 0 0.002 0 0.004 0 0.005v-0c0 0.52 0.043 1.021 0.152 1.496-5.454-0.266-10.28-2.88-13.522-6.861-0.564 0.949-0.899 2.092-0.902 3.313v0.001c0 2.272 1.171 4.286 2.915 5.451-1.092-0.030-2.108-0.326-2.996-0.825l0.033 0.017v0.072c0.004 3.165 2.237 5.807 5.213 6.44l0.043 0.008c-0.493 0.136-1.060 0.215-1.644 0.215-0.027 0-0.053-0-0.080-0l0.004 0c-0.419 0-0.843-0.024-1.242-0.112 0.85 2.598 3.262 4.509 6.13 4.57-2.215 1.746-5.046 2.8-8.123 2.8-0.004 0-0.008 0-0.012 0h0.001c-0.009 0-0.020 0-0.031 0-0.542 0-1.077-0.034-1.601-0.099l0.063 0.006c2.826 1.846 6.286 2.944 10.003 2.944 0.022 0 0.043-0 0.065-0h-0.003c12.072 0 18.672-10 18.672-18.667q0-0.435-0.024-0.848c1.298-0.938 2.39-2.067 3.258-3.359l0.030-0.047z"></path>
</symbol>
<symbol id="icon-x" viewBox="0 0 24 24">
<path d="M5.293 6.707l5.293 5.293-5.293 5.293c-0.391 0.391-0.391 1.024 0 1.414s1.024 0.391 1.414 0l5.293-5.293 5.293 5.293c0.391 0.391 1.024 0.391 1.414 0s0.391-1.024 0-1.414l-5.293-5.293 5.293-5.293c0.391-0.391 0.391-1.024 0-1.414s-1.024-0.391-1.414 0l-5.293 5.293-5.293-5.293c-0.391-0.391-1.024-0.391-1.414 0s-0.391 1.024 0 1.414z"></path>
</symbol>
<symbol id="icon-email" viewBox="0 0 24 32">
<path d="M20 8h-16c-1.1 0-1.99 0.9-1.99 2l-0.010 12c0 1.1 0.9 2 2 2h16c1.1 0 2-0.9 2-2v-12c0-1.1-0.9-2-2-2zM19.6 12.25l-7.070 4.42c-0.32 0.2-0.74 0.2-1.060 0l-7.070-4.42c-0.25-0.16-0.4-0.43-0.4-0.72 0-0.67 0.73-1.070 1.3-0.72l6.7 4.19 6.7-4.19c0.57-0.35 1.3 0.050 1.3 0.72 0 0.29-0.15 0.56-0.4 0.72z"></path>
</symbol>
<symbol id="icon-phone" viewBox="0 0 24 32">
<path d="M19.635 18.487l-2.451-0.28c-0.589-0.067-1.167 0.135-1.582 0.55l-1.775 1.775c-2.731-1.389-4.969-3.618-6.359-6.359l1.785-1.785c0.415-0.415 0.618-0.994 0.55-1.582l-0.28-2.432c-0.116-0.975-0.936-1.708-1.92-1.708h-1.669c-1.090 0-1.997 0.907-1.93 1.997 0.511 8.24 7.102 14.821 15.332 15.332 1.090 0.068 1.997-0.839 1.997-1.93v-1.669c0.010-0.975-0.724-1.795-1.698-1.911z"></path>
</symbol>
<symbol id="icon-person" viewBox="0 0 32 32">
<path d="M16 16c2.947 0 5.333-2.387 5.333-5.333s-2.387-5.333-5.333-5.333c-2.947 0-5.333 2.387-5.333 5.333s2.387 5.333 5.333 5.333zM16 18.667c-3.56 0-10.667 1.787-10.667 5.333v1.333c0 0.733 0.6 1.333 1.333 1.333h18.667c0.733 0 1.333-0.6 1.333-1.333v-1.333c0-3.547-7.107-5.333-10.667-5.333z"></path>
</symbol>
</defs>
</svg>
